<svg width="25" height="24" viewBox="0 0 25 24" fill="none" xmlns="http://www.w3.org/2000/svg">
<path d="M16.167 21V19C16.167 17.9391 15.7456 16.9217 14.9954 16.1716C14.2453 15.4214 13.2279 15 12.167 15H6.16699C5.10613 15 4.08871 15.4214 3.33857 16.1716C2.58842 16.9217 2.16699 17.9391 2.16699 19V21M22.167 20.9999V18.9999C22.1663 18.1136 21.8713 17.2527 21.3284 16.5522C20.7854 15.8517 20.0251 15.3515 19.167 15.1299M16.167 3.12988C17.0274 3.35018 17.79 3.85058 18.3346 4.55219C18.8792 5.2538 19.1748 6.11671 19.1748 7.00488C19.1748 7.89305 18.8792 8.75596 18.3346 9.45757C17.79 10.1592 17.0274 10.6596 16.167 10.8799M13.167 7C13.167 9.20914 11.3761 11 9.16699 11C6.95785 11 5.16699 9.20914 5.16699 7C5.16699 4.79086 6.95785 3 9.16699 3C11.3761 3 13.167 4.79086 13.167 7Z" stroke="black" stroke-width="2" stroke-linecap="round" stroke-linejoin="round"/>
</svg>
