<svg width="25" height="24" viewBox="0 0 25 24" fill="none" xmlns="http://www.w3.org/2000/svg">
<path d="M12.833 7C12.833 5.93913 12.4116 4.92172 11.6614 4.17157C10.9113 3.42143 9.89387 3 8.83301 3H2.83301V18H9.83301C10.6287 18 11.3917 18.3161 11.9543 18.8787C12.5169 19.4413 12.833 20.2044 12.833 21M12.833 7V21M12.833 7C12.833 5.93913 13.2544 4.92172 14.0046 4.17157C14.7547 3.42143 15.7721 3 16.833 3H22.833V18H15.833C15.0374 18 14.2743 18.3161 13.7117 18.8787C13.1491 19.4413 12.833 20.2044 12.833 21M6.83301 8H8.83301M6.83301 12H8.83301M16.833 8H18.833M16.833 12H18.833" stroke="black" stroke-width="2" stroke-linecap="round" stroke-linejoin="round"/>
</svg>
