<svg width="49" height="48" viewBox="0 0 49 48" fill="none" xmlns="http://www.w3.org/2000/svg">
<g clip-path="url(#clip0_90_885)">
<path d="M24.8701 28.8647C25.493 28.3334 25.984 27.5932 26.343 26.6442C26.376 26.5563 26.409 26.4647 26.442 26.3694C26.7388 25.4827 26.8853 24.4457 26.8853 23.2659C26.8853 23.101 26.8853 22.9324 26.878 22.7639C26.8121 20.5984 26.3064 18.4036 25.3647 16.1795C25.3354 16.1062 25.3061 16.0329 25.2731 15.9596C24.8994 15.1022 24.4634 14.2375 23.9614 13.3691C23.9394 13.3288 23.9174 13.2921 23.8918 13.2555C23.8588 13.1969 23.8258 13.1382 23.7892 13.0796C22.1256 10.2912 20.1543 8.11473 17.8789 6.56115C17.5272 6.31931 17.1718 6.09214 16.809 5.88328C15.9882 5.41061 15.2078 5.05153 14.4603 4.8097C12.8371 4.28573 11.3861 4.30771 10.111 4.88298L9.65664 5.11015C7.70366 6.22405 6.729 8.39687 6.729 11.6286C6.729 14.8604 7.70366 18.1618 9.65664 21.5254C11.606 24.8927 13.9913 27.388 16.809 29.0149C17.9449 29.6708 19.0185 30.0811 20.0261 30.2497C21.0337 30.4146 21.9241 30.3669 22.7009 30.1031L32.4695 46.9507L34.6386 45.7159L24.8701 28.8647ZM23.7855 21.5767C23.7745 22.8518 23.5327 23.8851 23.0637 24.6729C22.7412 25.2262 22.3015 25.6586 21.7519 25.9737C20.3925 26.7468 18.7473 26.5746 16.809 25.4534C14.8707 24.3358 13.2218 22.6063 11.8661 20.265C10.5104 17.9273 9.82885 15.6445 9.82885 13.4204C9.82885 11.1963 10.5104 9.69764 11.8661 8.92451C12.5293 8.54344 13.2621 8.39321 14.0646 8.46649C14.9 8.54344 15.816 8.86954 16.809 9.44115C16.9263 9.51076 17.0472 9.58038 17.1608 9.65367C17.8093 10.0604 18.4212 10.5367 19.0038 11.0863C19.678 11.7202 20.3046 12.4531 20.8872 13.2811C21.0997 13.5816 21.3085 13.8967 21.5064 14.2228C21.5504 14.2924 21.5943 14.3584 21.631 14.4317C21.675 14.4976 21.7116 14.5636 21.7519 14.6295C22.0121 15.0802 22.2466 15.5273 22.4554 15.9706C22.6386 16.359 22.8035 16.7437 22.9464 17.1248C22.994 17.2457 23.038 17.3666 23.0783 17.4876C23.551 18.8396 23.7855 20.1697 23.7855 21.4778V21.5767Z" stroke="white" stroke-width="0.366412" stroke-linecap="round" stroke-linejoin="round"/>
<path d="M21.4221 17.887L20.4291 18.4586L18.194 19.7557L15.9552 21.0491L12.1958 14.6076L13.8227 13.6769L15.9149 17.2897L16.4865 16.9636L18.7033 15.6995L19.7915 15.0803L19.9124 15.2891L21.4221 17.887Z" stroke="white" stroke-width="0.366412" stroke-linecap="round" stroke-linejoin="round"/>
<path d="M23.7853 21.5767C23.7743 22.8518 23.5324 23.8851 23.0634 24.6729C22.741 25.2262 22.3013 25.6585 21.7517 25.9736C20.3923 26.7468 18.7471 26.5746 16.8088 25.4533C14.8704 24.3358 13.2216 22.6063 11.8659 20.2649C10.5101 17.9272 9.82861 15.6445 9.82861 13.4204C9.82861 11.1962 10.5101 9.69762 11.8659 8.92449C12.5291 8.54342 13.2619 8.39319 14.0643 8.46647C14.8998 8.54342 15.8158 8.86953 16.8088 9.44113C16.926 9.51075 17.0469 9.58037 17.1605 9.65365C17.1605 9.68663 17.1605 9.7196 17.1605 9.75624C17.1605 10.4671 17.2301 11.1853 17.3694 11.9071L14.8814 13.1492L13.8262 13.6769L12.1993 14.6075L15.9587 21.0491L18.2891 19.8839L20.6304 18.7114C21.5758 19.8949 22.6274 20.8512 23.7889 21.5767H23.7853Z" stroke="white" stroke-width="0.366412" stroke-linecap="round" stroke-linejoin="round"/>
<path d="M34.2134 19.6019C34.2134 20.9063 34.0339 22.0349 33.6711 22.9802C33.3121 23.9292 32.8211 24.6694 32.1982 25.2007L29.4024 26.5967L24.8699 28.8648C25.4928 28.3335 25.9838 27.5934 26.3429 26.6443C26.3759 26.5564 26.4089 26.4648 26.4418 26.3695C26.7386 25.4828 26.8852 24.4459 26.8852 23.266C26.8852 23.1011 26.8852 22.9326 26.8779 22.764C26.8119 20.5985 26.3063 18.4037 25.3646 16.1796C25.3353 16.1063 25.306 16.033 25.273 15.9598C24.8992 15.1024 24.4632 14.2376 23.9612 13.3692C23.9392 13.3289 23.9173 13.2923 23.8916 13.2556C23.8586 13.197 23.8256 13.1384 23.789 13.0798C22.1255 10.2914 20.1542 8.11488 17.8788 6.56129C17.527 6.31946 17.1716 6.09228 16.8089 5.88343C15.9881 5.41076 15.2076 5.05167 14.4602 4.80984C12.8369 4.28587 11.386 4.30786 10.1108 4.88312L16.9847 1.44618C18.934 0.335951 21.3194 0.59244 24.1371 2.21931C26.9511 3.84618 29.3365 6.34144 31.2895 9.70511C33.2388 13.0724 34.2134 16.3701 34.2134 19.6019Z" stroke="white" stroke-width="0.366412" stroke-linecap="round" stroke-linejoin="round"/>
<path d="M41.9669 42.0517L34.6387 45.7159L24.8701 28.8647L29.4026 26.5966L32.1984 25.2006L41.9669 42.0517Z" stroke="white" stroke-width="0.366412" stroke-linecap="round" stroke-linejoin="round"/>
<path d="M41.9666 42.0521L39.7975 43.2869L32.4692 46.9511L34.6384 45.7162L41.9666 42.0521Z" stroke="white" stroke-width="0.366412" stroke-linecap="round" stroke-linejoin="round"/>
<path d="M22.9468 17.1249L21.4225 17.887L19.9129 15.2892L19.792 15.0803L21.4555 14.2485L21.5068 14.2229C21.5508 14.2925 21.5947 14.3585 21.6314 14.4318C21.6754 14.4977 21.712 14.5637 21.7523 14.6296C22.0125 15.0803 22.247 15.5273 22.4558 15.9707C22.639 16.3591 22.8039 16.7438 22.9468 17.1249Z" stroke="white" stroke-width="0.366412" stroke-linecap="round" stroke-linejoin="round"/>
<path d="M23.0781 17.4876L20.6268 18.7114L18.2855 19.884L15.9551 21.0492L18.1939 19.7557L20.429 18.4586L21.4219 17.887L22.9462 17.1249C22.9939 17.2458 23.0378 17.3667 23.0781 17.4876Z" stroke="white" stroke-width="0.366412" stroke-linecap="round" stroke-linejoin="round"/>
<path d="M21.5064 14.2229L21.4551 14.2486L19.7916 15.0803L18.7034 15.6996L16.4866 16.9637L15.915 17.2898L13.8228 13.677L14.878 13.1493L17.3659 11.9072L19.0038 11.0864C19.678 11.7203 20.3046 12.4531 20.8872 13.2812C21.0997 13.5817 21.3086 13.8968 21.5064 14.2229Z" stroke="white" stroke-width="0.366412" stroke-linecap="round" stroke-linejoin="round"/>
</g>
<defs>
<clipPath id="clip0_90_885">
<rect width="48" height="48" fill="white" transform="translate(0.5 -0.000244141)"/>
</clipPath>
</defs>
</svg>
